M48
; DRILL file {KiCad (5.1.8)-1} date 03/12/21 19:43:45
; FORMAT={-:-/ absolute / inch / decimal}
; #@! TF.CreationDate,2021-03-12T19:43:45-03:00
; #@! TF.GenerationSoftware,Kicad,Pcbnew,(5.1.8)-1
FMAT,2
INCH
T1C0.0079
T2C0.0157
T3C0.0197
T4C0.0217
T5C0.0394
T6C0.1000
%
G90
G05
T1
X1.5783Y-3.9634
X1.5787Y-3.8618
X1.5799Y-3.7453
X1.5815Y-3.3358
X1.5819Y-3.2157
X1.5823Y-3.1039
X1.6705Y-3.0484
X1.6709Y-3.7453
X1.6717Y-3.8622
X1.672Y-3.9626
X1.6728Y-4.0894
X1.6925Y-3.3366
X1.6933Y-3.2146
X1.7803Y-3.7744
X1.802Y-3.9654
X1.8024Y-4.0902
X1.8059Y-3.515
X1.8272Y-2.9748
X1.8295Y-3.311
X1.8295Y-3.3642
X1.8685Y-3.0717
X1.8815Y-3.8224
X1.885Y-3.5563
X1.8961Y-3.6665
X1.8988Y-3.5965
X1.8996Y-3.6254
X1.9122Y-2.9748
X1.9287Y-4.0898
X1.9295Y-3.9642
X1.9417Y-3.5307
X1.9453Y-3.8224
X1.9736Y-3.3335
X2.0043Y-3.7083
X2.0512Y-4.089
X2.0524Y-3.1429
X2.0531Y-3.2681
X2.0638Y-3.7063
X2.0744Y-3.7547
X2.0772Y-3.935
X2.0811Y-3.3866
X2.0969Y-3.9913
X2.102Y-2.9756
X2.1091Y-3.5618
X2.1102Y-3.6254
X2.1409Y-3.7575
X2.1421Y-3.4744
X2.15Y-4.089
X2.1799Y-3.9913
X2.1839Y-3.7
X2.187Y-3.1295
X2.198Y-3.5642
X2.2472Y-3.3854
X2.25Y-3.6555
X2.2681Y-4.0902
X2.2898Y-3.0799
X2.2957Y-3.1862
X2.2969Y-3.2795
X2.3102Y-3.6173
X2.3138Y-3.5043
X2.3287Y-3.7433
X2.3429Y-3.8035
X2.3594Y-3.8874
X2.3783Y-3.574
X2.3795Y-3.2996
X2.3803Y-3.3787
X2.3917Y-4.0882
X2.3925Y-3.9945
X2.3992Y-3.5307
X2.4154Y-3.078
X2.439Y-3.6606
X2.4496Y-3.3772
X2.5327Y-3.0783
X2.5354Y-3.8933
X2.5354Y-3.9937
X2.5358Y-3.7906
X2.5362Y-3.7016
X2.5362Y-4.0882
X2.5697Y-3.237
X2.5697Y-3.3717
X2.5839Y-3.5118
X2.5854Y-2.939
X2.6465Y-3.4272
X2.6469Y-3.9937
X2.6472Y-4.087
X2.6701Y-3.4941
X2.6854Y-3.078
X2.6858Y-3.1756
X2.728Y-3.7181
X2.7543Y-3.9941
X2.7547Y-4.0858
X2.7969Y-3.4941
X2.8Y-3.68
X2.8114Y-2.9417
X2.8118Y-3.0748
X2.8122Y-3.1744
X2.8579Y-3.3772
X2.865Y-3.9933
X2.8654Y-3.8921
X2.8657Y-4.0835
X2.8768Y-3.7531
X2.922Y-3.6815
X2.9228Y-3.4941
X2.9402Y-2.9425
X2.9409Y-3.0756
X2.9421Y-3.1764
X2.9618Y-3.6146
X2.9736Y-3.9917
X2.9744Y-4.0843
X3.0102Y-3.372
X3.0102Y-3.4736
X3.0106Y-3.7575
X3.0114Y-3.6402
X3.0126Y-3.8437
X3.0295Y-3.2543
X3.0642Y-3.6898
X3.0705Y-3.7969
X3.0783Y-3.3039
X3.0902Y-3.9894
X3.0902Y-4.085
X3.1063Y-3.0098
X3.124Y-3.3917
X3.124Y-3.4594
X3.1244Y-3.5213
X3.1768Y-3.9276
X3.1783Y-3.7264
X3.1783Y-3.7874
X3.1874Y-3.8429
X3.189Y-3.6079
X3.1976Y-2.935
X3.198Y-3.0083
X3.1984Y-3.0929
X3.1992Y-4.0858
X3.202Y-3.1882
X3.202Y-3.285
X3.2035Y-3.3902
X3.2173Y-3.5043
X3.2835Y-3.1894
X3.2898Y-3.3913
X3.2917Y-2.9327
X3.2921Y-2.9917
X3.3028Y-3.6622
X3.3102Y-3.0457
X3.3339Y-4.0665
X3.3398Y-3.2929
X3.3535Y-3.0835
X3.3654Y-3.3453
X3.3661Y-3.1382
X3.3669Y-3.4484
X3.3689Y-3.2472
X3.3689Y-3.4008
X3.3701Y-3.1902
X3.3705Y-3.5
X3.3799Y-3.9453
X3.38Y-3.54
X3.38Y-3.5894
X3.4039Y-3.8469
X3.4043Y-3.7055
X3.4126Y-4.0472
X3.4484Y-3.587
X3.4547Y-3.139
X3.4579Y-3.4421
X3.4709Y-3.5484
X3.4724Y-3.9386
X3.4728Y-3.7894
X3.474Y-3.8484
X3.4748Y-3.3122
X3.4799Y-3.1728
X3.4803Y-3.0386
X3.4882Y-3.4059
X3.489Y-3.2646
X3.4953Y-3.939
X3.4969Y-3.4909
X3.502Y-3.361
X3.5067Y-3.2217
X3.5071Y-3.1169
X3.5142Y-3.9626
X3.5146Y-3.6224
X3.5201Y-3.7457
X3.5228Y-4.0122
X3.5331Y-3.8484
X3.5378Y-2.9319
X3.539Y-2.9949
X3.5469Y-3.0587
X3.5535Y-3.9504
X3.5598Y-3.4094
X3.561Y-3.311
X3.5618Y-3.4969
X3.5803Y-3.9764
X3.6004Y-3.9358
X3.6071Y-2.9622
X3.6197Y-3.6571
X3.624Y-3.2118
X3.6339Y-3.8972
X3.6362Y-4.0843
X3.6508Y-3.05
X3.6531Y-3.1244
X3.6547Y-3.8559
X3.6583Y-3.8118
X3.6626Y-3.7528
X3.6638Y-3.7024
X3.6642Y-3.6697
X3.6665Y-3.4866
X3.6669Y-3.7252
X3.6862Y-3.3106
X3.6878Y-4.0945
X3.7217Y-3.8402
X3.7224Y-3.6075
X3.7264Y-3.4508
X3.7283Y-3.2496
X3.739Y-3.7803
X3.7724Y-3.6902
X3.7791Y-3.9795
X3.7862Y-3.8949
X3.7886Y-4.098
X3.7965Y-3.8429
X3.8059Y-3.3764
X3.8063Y-3.5094
X3.8118Y-3.0488
X3.8122Y-3.1197
X3.8646Y-3.9898
X3.8854Y-3.3319
X3.889Y-3.6224
X3.9118Y-3.2476
X3.9417Y-3.3772
X3.9421Y-3.4598
X3.9591Y-3.9917
X3.9642Y-3.0461
X3.9972Y-3.6236
X4.013Y-3.3382
X4.0465Y-3.3917
X4.0504Y-3.363
X4.0579Y-3.263
X4.065Y-3.0461
X4.1154Y-4.0811
X4.1409Y-3.8701
X4.1535Y-4.0024
X4.1642Y-3.0461
X4.1689Y-3.4533
X4.1705Y-3.7256
X4.1713Y-3.6213
X4.1807Y-3.8063
X4.2252Y-3.8362
X4.2252Y-3.9248
X4.2402Y-4.0843
X4.2508Y-3.263
X4.2661Y-3.0457
X4.2661Y-4.0008
X4.3587Y-3.0453
X4.3821Y-3.9272
X4.398Y-4.0114
X4.4181Y-3.4563
X4.4189Y-3.5606
X4.4197Y-3.6331
X4.4209Y-3.6949
X4.4394Y-4.0906
X4.4531Y-3.1197
X4.4726Y-3.23
X4.4854Y-3.9039
X4.4984Y-3.5614
X4.5179Y-3.23
X4.5575Y-2.95
X4.5579Y-3.0453
X4.5815Y-3.4547
X4.5819Y-3.6957
X4.5823Y-3.561
X4.5823Y-3.6346
X4.6094Y-3.2283
X4.6102Y-3.9732
X4.6539Y-2.9492
X4.6551Y-3.0445
X4.6933Y-3.2894
X4.7024Y-3.8819
X4.7083Y-4.0264
X4.7268Y-3.2894
X4.7575Y-3.961
X4.7614Y-3.2894
X4.7713Y-3.3551
X4.7998Y-3.1594
X4.8031Y-3.289
X4.822Y-3.3563
X4.822Y-3.8445
X4.8311Y-3.6657
X4.8402Y-3.2858
X4.8512Y-3.5744
X4.8547Y-3.45
X4.8642Y-3.9677
X4.874Y-3.3654
X4.8886Y-3.2858
X4.9055Y-3.7492
X4.9079Y-2.963
X4.9102Y-3.0591
X4.9114Y-3.3941
X4.9197Y-4.0925
X4.9256Y-3.4768
X4.9276Y-3.6685
X4.9343Y-3.2874
X4.9579Y-3.4055
X4.9815Y-3.2866
X4.9953Y-3.3803
X5.0217Y-3.3575
X5.024Y-3.2862
X5.0264Y-2.9634
X5.0268Y-3.0559
X5.0268Y-3.7496
X5.0272Y-3.139
X5.0299Y-3.628
X5.0303Y-3.4433
X5.0307Y-3.5165
X5.0575Y-3.8799
X5.0602Y-3.3591
X5.0724Y-3.2831
X5.0791Y-3.3925
X5.085Y-3.2327
X5.1165Y-3.4406
X5.1331Y-3.2091
X5.1382Y-3.9602
X5.1402Y-3.5165
X5.1413Y-3.7492
X5.1421Y-3.628
X5.163Y-2.963
X5.1638Y-3.0571
X5.1909Y-3.4386
X5.1921Y-3.2047
X5.2516Y-3.6287
X5.2528Y-3.7508
X5.2535Y-3.5079
X5.2543Y-3.2315
X5.2559Y-3.4142
X5.2606Y-3.2902
X5.2614Y-3.3634
X5.2634Y-3.9311
X5.2638Y-4.0472
X5.2803Y-2.963
X5.2815Y-3.0555
X5.3815Y-3.7445
X5.3819Y-3.6122
X5.3819Y-3.8748
X5.3846Y-3.2287
X5.3846Y-3.4772
X5.385Y-3.0965
X5.385Y-3.3449
T2
X1.8469Y-3.7713
X1.8843Y-3.8626
X2.1331Y-3.8626
X2.2177Y-3.335
X2.4583Y-3.2543
X2.9661Y-3.8461
X3.0937Y-3.5622
X3.1413Y-3.3094
X3.1878Y-3.5154
X3.2189Y-3.6894
X3.2894Y-3.9831
X3.3791Y-4.065
X3.652Y-3.5752
X4.3368Y-3.1961
X4.3874Y-4.0787
X4.7152Y-3.1961
X4.972Y-3.9165
X5.1811Y-3.8445
T5
X2.7067Y-2.939
X2.8067Y-2.939
X3.9059Y-3.9039
X4.0059Y-3.9039
X3.9071Y-4.0811
X4.0071Y-4.0811
X3.9062Y-3.7245
X4.0062Y-3.7245
X3.9028Y-3.5343
X4.0028Y-3.5343
X2.2815Y-2.939
X2.3815Y-2.939
X2.4815Y-2.939
X2.6815Y-3.5673
X2.7815Y-3.5673
X2.8815Y-3.5673
X2.6815Y-3.3039
X2.7815Y-3.3039
X2.8815Y-3.3039
X4.5335Y-4.0925
X4.6335Y-4.0925
X4.7335Y-4.0925
X4.8335Y-4.0925
X5.0039Y-4.0933
X5.1039Y-4.0933
X2.6815Y-3.8303
X2.7815Y-3.8303
X3.7118Y-2.939
X3.8118Y-2.939
X3.9118Y-2.939
X4.0118Y-2.939
X4.1118Y-2.939
X4.2118Y-2.939
X4.3118Y-2.939
X4.4118Y-2.939
T6
X1.6102Y-2.9858
X1.6102Y-4.0453
X5.3811Y-2.9858
X5.3811Y-4.0453
T3
G00X1.5974Y-3.4024
M15
G01X1.5719Y-3.4024
M16
G05
G00X1.5974Y-3.678
M15
G01X1.5719Y-3.678
M16
G05
T4
G00X1.6909Y-3.4358
M15
G01X1.6909Y-3.4476
M16
G05
G00X1.6909Y-3.6327
M15
G01X1.6909Y-3.6445
M16
G05
T0
M30
